<svg width="46" height="46" viewBox="0 0 46 46" fill="none" xmlns="http://www.w3.org/2000/svg">
<rect x="0.950928" y="0.677734" width="44.5217" height="44.5217" rx="7.12347" fill="#E9F5F3"/>
<path d="M27.1426 17.2361C27.1426 19.4058 25.3838 21.1646 23.2141 21.1646C21.0445 21.1646 19.2856 19.4058 19.2856 17.2361C19.2856 15.0664 21.0445 13.3076 23.2141 13.3076C25.3838 13.3076 27.1426 15.0664 27.1426 17.2361Z" fill="#27A770"/>
<path d="M18.9285 26.8786C18.9285 27.0758 18.7686 27.2358 18.5714 27.2358C18.3741 27.2358 18.2142 27.0758 18.2142 26.8786C18.2142 26.6814 18.3741 26.5215 18.5714 26.5215C18.7686 26.5215 18.9285 26.6814 18.9285 26.8786Z" fill="#27A770"/>
<path d="M26.828 22.7192C27.6384 23.5667 28.1234 24.6732 28.1977 25.8435C29.0352 26.007 29.6403 26.74 29.6426 27.5934V29.0219H28.9283V27.5934C28.9283 27.0017 28.4486 26.522 27.8569 26.522C27.2652 26.522 26.7855 27.0017 26.7855 27.5934V29.0219H26.0712V27.5934C26.0726 26.7518 26.6608 26.0252 27.4837 25.8483C27.3198 23.6056 25.4483 21.8721 23.1997 21.8799C20.9508 21.8876 19.0915 23.6342 18.9431 25.878C19.4328 26.0585 19.7212 26.5652 19.6264 27.0784C19.5315 27.5915 19.0807 27.9615 18.559 27.9547C18.0372 27.9479 17.5962 27.5664 17.5146 27.0509C17.4332 26.5356 17.7347 26.0363 18.2289 25.8687C18.2974 24.6894 18.7834 23.573 19.5999 22.7192C16.7866 24.0998 15.0028 26.9595 15 30.0933V33.3076H31.4283V30.0933C31.4255 26.9595 29.6414 24.0996 26.828 22.7192Z" fill="#27A770"/>
</svg>
