<svg width="46" height="46" viewBox="0 0 46 46" fill="none" xmlns="http://www.w3.org/2000/svg">
<rect x="0.531403" y="0.677734" width="44.5217" height="44.5217" rx="7.12347" fill="#FFF2E9"/>
<path d="M22.1304 16.2453H22.5072V15.7716H22.9906V15.3946H22.5072V14.9209H22.1304V15.3946H21.6665V15.7716H22.1304V16.2453Z" fill="#FDB557"/>
<path d="M26.222 18.6717V14.6556C26.222 14.6556 22.329 11.6226 18.4352 14.6556V18.6717C18.4352 18.6717 19.6744 17.4323 22.2806 17.3901C24.8863 17.3474 26.222 18.6717 26.222 18.6717ZM20.887 15.1256C20.887 14.6706 21.2557 14.3017 21.7107 14.3017C21.9568 14.3017 22.177 14.4105 22.3285 14.5815C22.4796 14.4105 22.6998 14.3017 22.9459 14.3017C23.401 14.3017 23.7696 14.6705 23.7696 15.1256C23.7696 15.3773 23.6565 15.602 23.4784 15.7531H23.4788L22.3456 16.8652L21.1773 15.7531H21.1777C21.0003 15.602 20.887 15.3769 20.887 15.1256Z" fill="#FDB557"/>
<path d="M18.1411 20.1903C18.1411 22.5024 20.0161 25.4024 22.3286 25.4024C24.6404 25.4024 26.5159 22.5028 26.5159 20.1903C26.5159 20.0806 26.5075 19.9735 26.4996 19.8663L25.8435 19.2155C25.7841 19.159 24.6559 18.1074 22.4518 18.1074L22.3387 18.1086C20.0422 18.1461 18.9561 19.1717 18.9109 19.2156L18.1542 19.9479C18.1488 20.0283 18.1411 20.1083 18.1411 20.1903Z" fill="#FDB557"/>
<path d="M26.6864 24.1211L22.4135 31.4262L18.5685 24.1211C18.5685 24.1211 15.0358 24.4388 14.0419 29.3473C13.864 30.2267 14.2624 31.5667 15.0489 31.9987C16.224 32.6433 18.4621 33.3422 22.6271 33.3065C26.7924 33.3422 29.0304 32.6436 30.2057 31.9987C30.9924 31.5675 31.391 30.2267 31.2125 29.3473C30.2188 24.4388 26.6864 24.1211 26.6864 24.1211ZM19.2394 32.3636C17.7309 32.3636 16.3461 31.7888 16.2747 31.7582L16.5899 31.0097C16.6093 31.0177 18.5437 31.8181 20.1457 31.4576L20.324 32.2501C19.967 32.331 19.5999 32.3636 19.2394 32.3636ZM25.6091 32.5187C25.2493 32.5187 24.8824 32.4858 24.5246 32.4052L24.7031 31.6127C26.3092 31.9753 28.2386 31.1728 28.2585 31.1648L28.5738 31.9134C28.5028 31.9439 27.118 32.5187 25.6091 32.5187Z" fill="#FDB557"/>
</svg>
