<svg width="45" height="46" viewBox="0 0 45 46" fill="none" xmlns="http://www.w3.org/2000/svg">
<rect x="0.111946" y="0.677734" width="44.5217" height="44.5217" rx="7.12347" fill="#E4E1FE"/>
<path d="M26.1426 17.2361C26.1426 19.4058 24.3838 21.1646 22.2141 21.1646C20.0445 21.1646 18.2856 19.4058 18.2856 17.2361C18.2856 15.0664 20.0445 13.3076 22.2141 13.3076C24.3838 13.3076 26.1426 15.0664 26.1426 17.2361Z" fill="#6758F3"/>
<path d="M17.9285 26.8786C17.9285 27.0758 17.7686 27.2358 17.5714 27.2358C17.3741 27.2358 17.2142 27.0758 17.2142 26.8786C17.2142 26.6814 17.3741 26.5215 17.5714 26.5215C17.7686 26.5215 17.9285 26.6814 17.9285 26.8786Z" fill="#6758F3"/>
<path fill-rule="evenodd" clip-rule="evenodd" d="M27.1976 25.8435C27.1234 24.6732 26.6384 23.5667 25.828 22.7192C28.6414 24.0996 30.4255 26.9595 30.4283 30.0933V33.3076H14V30.0933C14.0028 26.9595 15.7865 24.0998 18.5999 22.7192C17.7834 23.573 17.2974 24.6894 17.2289 25.8687C16.7347 26.0363 16.4332 26.5356 16.5146 27.0509C16.5962 27.5664 17.0372 27.9479 17.559 27.9547C18.0807 27.9615 18.5315 27.5915 18.6264 27.0784C18.7212 26.5652 18.4328 26.0585 17.9431 25.878C18.0915 23.6342 19.9508 21.8876 22.1997 21.8799C24.4483 21.8721 26.3198 23.6056 26.4837 25.8483C25.6608 26.0252 25.0726 26.7518 25.0712 27.5934V29.0219H25.7855V27.5934C25.7855 27.0017 26.2652 26.522 26.8569 26.522C27.4486 26.522 27.9283 27.0017 27.9283 27.5934V29.0219H28.6426V27.5934C28.6403 26.74 28.0352 26.007 27.1976 25.8435ZM22.065 31.9367L23.5442 30.4575L23.9046 30.8179L22.065 32.6575L20.9 31.4925L21.2604 31.1321L22.065 31.9367Z" fill="#6758F3"/>
</svg>
