<svg width="45" height="46" viewBox="0 0 45 46" fill="none" xmlns="http://www.w3.org/2000/svg">
<rect x="0.370422" y="0.677734" width="44.5217" height="44.5217" rx="7.12347" fill="#FFF2F2"/>
<path d="M25.0834 33.3076C24.8059 33.3076 24.5451 33.1693 24.3901 32.9368L22.9709 30.8076H21.3334C20.8734 30.8076 20.5001 30.4342 20.5001 29.9742C20.5001 29.5142 20.8734 29.1409 21.3334 29.1409H23.4167C23.6951 29.1409 23.9551 29.2801 24.1101 29.5117L24.9801 30.8167L26.8376 27.1009C26.9743 26.8292 27.2468 26.6526 27.5509 26.6409C27.8743 26.6334 28.141 26.7842 28.2976 27.0442L30.5551 30.8076H32.1668C32.6268 30.8076 33.0002 31.1809 33.0002 31.6409C33.0002 32.1009 32.6268 32.4743 32.1668 32.4743H30.0835C29.791 32.4743 29.5193 32.3209 29.3693 32.0701L27.6501 29.2051L25.8293 32.8476C25.6959 33.1134 25.4318 33.2884 25.1351 33.3068C25.1184 33.3076 25.1009 33.3076 25.0834 33.3076Z" fill="#FF8080"/>
<path d="M20.5 21.641C22.8012 21.641 24.6667 19.7755 24.6667 17.4743C24.6667 15.1731 22.8012 13.3076 20.5 13.3076C18.1988 13.3076 16.3333 15.1731 16.3333 17.4743C16.3333 19.7755 18.1988 21.641 20.5 21.641Z" fill="#FF8080"/>
<path d="M18.8334 29.9743C18.8334 28.596 19.9551 27.4743 21.3334 27.4743H23.4167C23.8492 27.4743 24.2659 27.5852 24.6318 27.7885L25.3476 26.356C25.7118 25.6301 26.4051 25.1543 27.1926 25.0276C26.4343 23.9901 25.2176 23.3076 23.8334 23.3076H17.1667C14.8658 23.3076 13 25.1735 13 27.4743V30.1827C13 30.5277 13.28 30.8077 13.625 30.8077H18.9867C18.8934 30.546 18.8334 30.2677 18.8334 29.9743Z" fill="#FF8080"/>
</svg>
