<svg width="240" height="208" viewBox="0 0 240 208" fill="none" xmlns="http://www.w3.org/2000/svg">
<path d="M115.063 6.38634L120.154 39.2682C120.348 40.5243 121.524 41.3849 122.78 41.1904L142.808 38.09C144.064 37.8955 144.924 36.7197 144.73 35.4636L139.64 2.58173C139.445 1.32569 138.269 0.465084 137.013 0.659531L116.986 3.75998C115.73 3.95443 114.869 5.13029 115.063 6.38634Z" stroke="#263238" stroke-width="0.752601" stroke-linecap="round" stroke-linejoin="round"/>
<path d="M126.013 40.6885L120.219 3.25826" stroke="#263238" stroke-width="0.752601" stroke-linecap="round" stroke-linejoin="round"/>
<path d="M126.791 6.18458L127.727 12.231L136.433 10.8831L135.497 4.83676L126.791 6.18458Z" stroke="#263238" stroke-width="0.752601" stroke-linecap="round" stroke-linejoin="round"/>
<path d="M129.152 9.77618C127.631 8.49877 128.645 6.40018 133.364 6.89188L134.292 5.02138L135.478 4.83889L136.416 10.8813L134.829 11.1296L133.942 8.84854C133.942 8.84854 130.586 10.9776 129.152 9.77618Z" stroke="#263238" stroke-width="0.752601" stroke-linecap="round" stroke-linejoin="round"/>
<path d="M139.797 22.8906C139.797 22.8906 139.833 18.5211 138.961 19.7731C138.089 21.0252 137.207 21.2128 137.191 20.1482C137.176 19.0837 139.219 17.2994 137.972 17.4413C136.725 17.5833 137.536 16.8128 137.617 16.6658C137.698 16.5188 137.191 15.2566 137.338 15.1957C137.486 15.1349 137.896 15.2211 137.262 11.11" stroke="#263238" stroke-width="0.752601" stroke-linecap="round" stroke-linejoin="round"/>
<path d="M129.903 37.5149L127.064 19.1851" stroke="#263238" stroke-width="0.752601" stroke-linecap="round" stroke-linejoin="round"/>
<path d="M131.979 37.1899L130.307 26.3928" stroke="#263238" stroke-width="0.752601" stroke-linecap="round" stroke-linejoin="round"/>
<path d="M135.646 36.6226L133.314 21.5623" stroke="#263238" stroke-width="0.752601" stroke-linecap="round" stroke-linejoin="round"/>
<path d="M121.939 31.9485L119.09 13.5679" stroke="#263238" stroke-width="0.752601" stroke-linecap="round" stroke-linejoin="round"/>
<path d="M109.099 207L100.893 165.905L169.792 151.554L179.159 195.235L109.099 207Z" stroke="#263238" stroke-width="0.752601" stroke-linecap="round" stroke-linejoin="round"/>
<path d="M169.328 196.887L161.436 153.293" stroke="#263238" stroke-width="0.752601" stroke-linecap="round" stroke-linejoin="round"/>
<path d="M155.576 158.459L159.419 179.277" stroke="#263238" stroke-width="0.752601" stroke-linecap="round" stroke-linejoin="round"/>
<path d="M152.121 161.545L153.018 167.628" stroke="#263238" stroke-width="0.752601" stroke-linecap="round" stroke-linejoin="round"/>
<path d="M145.082 160.617L150.911 191.691" stroke="#263238" stroke-width="0.752601" stroke-linecap="round" stroke-linejoin="round"/>
<path d="M141.105 201.627L133.598 159.093" stroke="#263238" stroke-width="0.752601" stroke-linecap="round" stroke-linejoin="round" stroke-dasharray="0.75 1.51"/>
<path d="M167.561 156.431L172.974 182.269" stroke="#263238" stroke-width="0.752601" stroke-linecap="round" stroke-linejoin="round"/>
<path d="M165.381 157.201L167.561 169.346" stroke="#263238" stroke-width="0.752601" stroke-linecap="round" stroke-linejoin="round"/>
<path d="M129.055 163.771L133.277 185.076" stroke="#263238" stroke-width="0.752601" stroke-linecap="round" stroke-linejoin="round"/>
<path d="M124.326 165.453L125.659 172.241" stroke="#263238" stroke-width="0.752601" stroke-linecap="round" stroke-linejoin="round"/>
<path d="M121.041 165.854L127.023 196.887" stroke="#263238" stroke-width="0.752601" stroke-linecap="round" stroke-linejoin="round"/>
<path d="M105.053 168.673L106.786 177.052" stroke="#263238" stroke-width="0.752601" stroke-linecap="round" stroke-linejoin="round"/>
<path d="M111.01 196.887L112.414 204.116" stroke="#263238" stroke-width="0.752601" stroke-linecap="round" stroke-linejoin="round"/>
<path d="M116.397 201.485C115.883 201.334 115.407 201.075 115.002 200.725C114.596 200.376 114.27 199.943 114.045 199.457" stroke="#263238" stroke-width="0.752601" stroke-linecap="round" stroke-linejoin="round"/>
<path d="M121.042 198.271C120.935 199.168 120.511 199.998 119.845 200.609C119.179 201.22 118.316 201.572 117.412 201.601" stroke="#263238" stroke-width="0.752601" stroke-linecap="round" stroke-linejoin="round"/>
<path d="M120.18 195.453C120.643 195.967 120.943 196.608 121.041 197.293" stroke="#263238" stroke-width="0.752601" stroke-linecap="round" stroke-linejoin="round"/>
<path d="M113.701 197.916C113.723 197.263 113.913 196.627 114.253 196.07C114.593 195.512 115.072 195.053 115.642 194.735C116.213 194.418 116.856 194.253 117.509 194.258C118.162 194.263 118.803 194.437 119.368 194.763" stroke="#263238" stroke-width="0.752601" stroke-linecap="round" stroke-linejoin="round"/>
<path d="M114.653 190.526C114.44 191.2 114.197 191.869 114.045 192.553" stroke="#263238" stroke-width="0.752601" stroke-linecap="round" stroke-linejoin="round"/>
<path d="M115.141 184.777C116.504 185.349 115.262 188.553 114.979 189.486" stroke="#263238" stroke-width="0.752601" stroke-linecap="round" stroke-linejoin="round"/>
<path d="M111.521 190.262L112.931 184.27C113.331 184.367 113.737 184.443 114.137 184.519" stroke="#263238" stroke-width="0.752601" stroke-linecap="round" stroke-linejoin="round"/>
<path d="M112.932 193.227C111.411 192.588 110.904 192.842 111.274 191.25" stroke="#263238" stroke-width="0.752601" stroke-linecap="round" stroke-linejoin="round"/>
<path d="M220.532 120.114L222.965 112.181L216.021 118.076C212.427 114.844 207.803 112.994 202.973 112.855" stroke="#263238" stroke-width="0.752601" stroke-linecap="round" stroke-linejoin="round"/>
<path d="M223.593 129.741C222.745 127.082 221.484 124.572 219.857 122.304" stroke="#263238" stroke-width="0.752601" stroke-linecap="round" stroke-linejoin="round"/>
<path d="M208.842 160.353C220.1 158.016 227.035 145.577 224.338 132.564" stroke="#263238" stroke-width="0.752601" stroke-linecap="round" stroke-linejoin="round"/>
<path d="M196.15 158.457C197.099 158.956 198.085 159.38 199.101 159.724" stroke="#263238" stroke-width="0.752601" stroke-linecap="round" stroke-linejoin="round"/>
<path d="M199.069 113.236C187.811 115.567 180.876 128.012 183.578 141.019C184.738 146.926 187.906 152.249 192.545 156.085" stroke="#263238" stroke-width="0.752601" stroke-linecap="round" stroke-linejoin="round"/>
<path d="M194.943 127.039C190.863 130.785 193.691 135.889 197.833 138.013C194.791 141.521 194.046 147.315 199.232 149.272C207.966 152.577 213.293 141.273 215.22 136.041C215.443 135.448 215.63 134.962 215.767 134.556C215.488 134.227 215.133 133.841 214.708 133.375C210.972 129.239 201.827 120.723 194.943 127.039Z" stroke="#263238" stroke-width="0.752601" stroke-linecap="round" stroke-linejoin="round"/>
<path d="M28.7842 95.8905L25.5957 103.55L33.0777 98.3541C36.3423 101.905 40.7611 104.183 45.5477 104.782" stroke="#263238" stroke-width="0.752601" stroke-linecap="round" stroke-linejoin="round"/>
<path d="M26.6504 86.0258C27.2416 88.7529 28.254 91.3712 29.6513 93.7866" stroke="#263238" stroke-width="0.752601" stroke-linecap="round" stroke-linejoin="round"/>
<path d="M44.2811 56.9647C32.8402 58.2066 24.7296 69.9213 26.1844 83.1313" stroke="#263238" stroke-width="0.752601" stroke-linecap="round" stroke-linejoin="round"/>
<path d="M56.7313 60.0725C55.8345 59.4931 54.8939 58.9847 53.918 58.5518" stroke="#263238" stroke-width="0.752601" stroke-linecap="round" stroke-linejoin="round"/>
<path d="M49.4727 104.782C60.9035 103.54 69.0039 91.8251 67.5693 78.6151C66.9808 72.6254 64.3393 67.0235 60.0924 62.7589" stroke="#263238" stroke-width="0.752601" stroke-linecap="round" stroke-linejoin="round"/>
<path d="M56.467 75.3172C53.3317 69.4601 46.042 67.2537 40.1849 70.389C34.3279 73.5242 32.1214 80.8139 35.2567 86.671C38.392 92.528 45.6817 94.7345 51.5387 91.5992C57.3958 88.464 59.6022 81.1743 56.467 75.3172Z" stroke="#263238" stroke-width="0.752601" stroke-linecap="round" stroke-linejoin="round"/>
<path d="M47.383 85.5654L50.7792 81.9664L40.4434 75.9646" stroke="#263238" stroke-width="0.752601" stroke-linecap="round" stroke-linejoin="round"/>
<path opacity="0.2" d="M160.433 65.9566C160.433 65.9566 182.271 67.7612 187.568 65.1506C192.866 62.54 229.059 61.2322 233.611 62.4031C233.611 62.4031 235.73 53.9986 232.719 50.6732C229.708 47.3479 232.607 42.2332 229.677 33.8083C226.747 25.3835 161.716 31.4613 161.716 31.4613L138.058 31.2028L125.68 45.0972L160.433 65.9566Z" fill="black" fill-opacity="0.7"/>
<path d="M170.936 54.7532C171.092 54.8056 171.236 54.8902 171.357 55.0015C173.055 56.796 174.941 64.4554 176.299 71.0351C177.43 76.4844 178.195 81.1733 178.195 81.1733C178.195 81.1733 148.201 84.7825 145.048 84.7825C141.895 84.7825 90.8495 90.6018 90.8495 90.6018L90.2462 76.6517L89.4453 58.1444C89.4453 58.1444 90.8089 58.0329 93.1914 57.8453C108.368 56.6237 164.95 52.4264 170.936 54.7532Z" fill="#92E3A9"/>
<path opacity="0.2" d="M170.936 54.753L174.267 71.035L175.529 77.1838C173.891 78.8515 173.861 80.1239 173.861 80.1239L169.273 80.6308L161.766 81.4266L95.7158 88.4321C94.6665 86.9114 92.3702 86.1612 92.3702 86.1612L92.0306 76.7833L91.4375 60.5369L93.1711 57.8553C108.368 56.6235 164.95 52.4263 170.936 54.753Z" fill="black" fill-opacity="0.7"/>
<path d="M170.936 54.753L174.267 71.035L175.529 77.1838C173.891 78.8515 173.861 80.1239 173.861 80.1239L169.273 80.6308L161.766 81.4266L95.7158 88.4321C94.6665 86.9114 92.3702 86.1612 92.3702 86.1612L92.0306 76.7833L91.4375 60.5369L93.1711 57.8553C108.368 56.6235 164.95 52.4263 170.936 54.753Z" stroke="#263238" stroke-width="0.752601" stroke-linecap="round" stroke-linejoin="round"/>
<path d="M151.491 79.2627L151.48 73.8286L153.179 73.8235L153.716 75.3341L154.096 78.8166L151.491 79.2627Z" fill="#92E3A9" stroke="#263238" stroke-width="0.752601" stroke-linecap="round" stroke-linejoin="round"/>
<path d="M154.988 78.9275L154.852 74.933L155.338 73.9091L157.594 73.9598L157.645 78.6233L154.988 78.9275Z" fill="#92E3A9" stroke="#263238" stroke-width="0.752601" stroke-linecap="round" stroke-linejoin="round"/>
<path d="M158.593 78.2891L158.264 73.7269L159.972 73.7776L160.753 75.9827L160.621 78.3145L158.593 78.2891Z" fill="#92E3A9" stroke="#263238" stroke-width="0.752601" stroke-linecap="round" stroke-linejoin="round"/>
<path d="M161.473 78.0153L161.66 74.3301L162.603 73.9955L163.642 74.5328L163.855 77.8278L162.248 78.3955L161.473 78.0153Z" fill="#92E3A9" stroke="#263238" stroke-width="0.752601" stroke-linecap="round" stroke-linejoin="round"/>
<path d="M164.771 73.7666L166.247 73.2597C166.403 73.1788 166.577 73.1366 166.754 73.1366C166.93 73.1366 167.104 73.1788 167.26 73.2597C167.368 73.354 167.45 73.4743 167.498 73.6093C167.546 73.7442 167.558 73.8891 167.534 74.0302C167.509 74.3141 167.412 74.5929 167.397 74.8768C167.362 75.7335 168.066 76.5192 167.904 77.3606C166.992 77.6901 165.654 78.5215 165.243 77.3961C165.177 77.1883 165.106 73.645 164.771 73.7666Z" fill="#92E3A9" stroke="#263238" stroke-width="0.752601" stroke-linecap="round" stroke-linejoin="round"/>
<path d="M168.924 73.7817C169.275 73.7012 169.63 73.6437 169.988 73.6093C170.215 73.5579 170.451 73.5653 170.673 73.631C170.896 73.6967 171.098 73.8184 171.261 73.9844C171.379 74.2006 171.444 74.4424 171.448 74.689L171.712 77.619C171.159 77.6617 170.603 77.6702 170.049 77.6443C169.39 77.472 169.446 77.5936 169.177 76.9701C168.757 75.9817 169.426 74.7955 168.924 73.7817Z" fill="#92E3A9" stroke="#263238" stroke-width="0.752601" stroke-linecap="round" stroke-linejoin="round"/>
<path d="M97.2168 84.4385C97.2168 84.4385 107.897 83.3334 110.011 83.2827" stroke="#263238" stroke-width="0.752601" stroke-linecap="round" stroke-linejoin="round"/>
<path d="M97.334 82.0554L103.219 81.5384" stroke="#263238" stroke-width="0.752601" stroke-linecap="round" stroke-linejoin="round"/>
<path d="M95.1074 73.7976L102.006 73.1285L102.098 72.1907L95.1733 72.4948L95.1074 73.7976Z" fill="#92E3A9" stroke="#263238" stroke-width="0.752601" stroke-linecap="round" stroke-linejoin="round"/>
<path opacity="0.2" d="M170.936 54.7533C171.092 54.8057 171.236 54.8903 171.357 55.0016C173.055 56.7961 174.941 64.4555 176.299 71.0352H171.737L169.284 80.6107L168.914 82.0554L161.776 81.4066L134.505 78.9278L92.0508 76.7633L90.2462 76.672L89.4453 58.1445C89.4453 58.1445 90.8089 58.033 93.1914 57.8454C108.368 56.6238 164.95 52.4265 170.936 54.7533Z" fill="black" fill-opacity="0.7"/>
<path d="M170.936 54.7532C171.092 54.8056 171.236 54.8902 171.357 55.0015C173.055 56.796 174.941 64.4554 176.299 71.0351C177.43 76.4844 178.195 81.1733 178.195 81.1733C178.195 81.1733 148.201 84.7825 145.048 84.7825C141.895 84.7825 90.8495 90.6018 90.8495 90.6018L90.2462 76.6517L89.4453 58.1444C89.4453 58.1444 90.8089 58.0329 93.1914 57.8453C108.368 56.6237 164.95 52.4264 170.936 54.7532Z" stroke="#263238" stroke-width="0.752601" stroke-linecap="round" stroke-linejoin="round"/>
<path d="M238.999 44.9344C237.929 44.8178 222.585 46.5008 220.917 46.5312C216.355 46.6123 210.369 47.9049 210.369 47.9049C205.756 49.7095 195.126 51.1136 188.308 55.9293C181.49 60.7449 173.471 60.7399 166.663 61.5408C159.855 62.3417 160.443 62.144 154.401 61.9412C149.862 61.795 145.318 61.9966 140.81 62.5444C136.796 62.9449 129.734 63.7458 126.445 62.5444C123.155 61.3431 122.389 58.2002 125.684 54.7583C128.979 51.3164 142.488 49.9123 144.156 49.9123C145.824 49.9123 151.035 49.9123 153.042 48.7058C153.042 48.7058 149.555 41.8879 148.592 41.8879C147.628 41.8879 139.117 42.0906 138.661 41.087L125.684 45.0966L122.982 37.493C124.266 36.0617 125.752 34.8253 127.393 33.8229C128.751 32.9647 130.193 32.2463 131.696 31.6787C140.207 28.47 146.143 23.3147 148.592 22.2502C151.04 21.1857 170.485 22.2502 174.099 22.2502C177.713 22.2502 194.376 24.582 197.179 24.5212C199.206 24.4755 206.749 23.1069 212.533 21.7433C214.763 21.2364 230.924 18.1594 232.206 17.688L238.999 44.9344Z" fill="#C78976"/>
<path opacity="0.4" d="M137.804 38.9326C138.894 38.9833 147.583 37.6805 147.583 37.6805C149.747 36.7782 157.128 41.7054 157.128 41.7054C157.726 42.7699 161.437 43.2261 161.437 43.2261C160.697 46.5616 153.017 54.2007 153.017 54.2007C153.017 54.2007 156.165 55.103 163.956 56.1168C171.747 57.1307 190.254 50.703 203.034 47.9657C215.813 45.2284 220.902 46.5312 220.902 46.5312C216.34 46.6123 210.353 47.9049 210.353 47.9049C205.741 49.7095 195.111 51.1136 188.293 55.9293C181.475 60.7449 173.471 60.7399 166.663 61.5408C159.855 62.3417 160.443 62.144 154.401 61.9412C149.862 61.795 145.318 61.9966 140.81 62.5444C136.796 62.9449 129.734 63.7458 126.445 62.5444C123.155 61.3431 122.389 58.2002 125.684 54.7583C128.979 51.3164 142.488 49.9123 144.156 49.9123C145.824 49.9123 151.035 49.9123 153.042 48.7058C153.042 48.7058 149.555 41.8879 148.592 41.8879C147.628 41.8879 139.117 42.0906 138.661 41.087L125.684 45.0966L122.982 37.493C124.266 36.0617 125.752 34.8253 127.393 33.8229C132.31 36.2814 137.125 38.8819 137.804 38.9326Z" fill="#9F614E"/>
<path opacity="0.4" d="M198.522 26.1479C195.481 25.8134 188.252 24.8147 183.741 24.1811C187.264 24.9567 189.048 26.2087 189.048 26.2087C189.048 26.2087 163.196 24.0493 161.619 23.8364C160.043 23.6235 152.956 21.4438 148.566 22.2447C151.01 21.1802 170.46 22.2447 174.074 22.2447C177.688 22.2447 194.35 24.5765 197.154 24.5157C199.181 24.47 212.102 22.2954 217.886 20.9318C213.628 23.8617 201.579 26.4825 198.522 26.1479Z" fill="#9F614E"/>
<path d="M232.183 17.6977C227.57 19.2996 199.943 24.4447 197.155 24.5055C194.367 24.5664 177.685 22.2346 174.076 22.2346C170.467 22.2346 151.011 21.1701 148.568 22.2346C146.125 23.2991 140.184 28.4544 131.673 31.6631C128.345 32.8759 125.356 34.8699 122.959 37.4774L125.661 45.081L138.638 41.0713C139.094 42.0852 147.605 41.8723 148.568 41.8723C149.531 41.8723 153.019 48.6902 153.019 48.6902C150.991 49.8966 145.8 49.8966 144.133 49.8966C142.465 49.8966 128.951 51.3008 125.661 54.7427C122.371 58.1846 123.126 61.3325 126.421 62.5288C129.716 63.7251 136.772 62.9293 140.787 62.5288C145.3 61.9802 149.849 61.7786 154.392 61.9256C160.435 62.1284 159.837 62.3311 166.655 61.5252C173.473 60.7192 181.492 60.7242 188.31 55.9137C195.128 51.1031 205.758 49.6939 210.37 47.8893C210.37 47.8893 234.991 44.4828 239.001 44.9188" stroke="#263238" stroke-width="0.752601" stroke-linecap="round" stroke-linejoin="round"/>
<path d="M153.018 48.7061C153.018 48.7061 158.629 47.5047 161.437 44.7978" stroke="#263238" stroke-width="0.752601" stroke-linecap="round" stroke-linejoin="round"/>
<path d="M155.576 47.9756C155.576 47.9756 157.127 42.9065 157.224 40.7876" stroke="#263238" stroke-width="0.752601" stroke-linecap="round" stroke-linejoin="round"/>
<path d="M148.567 41.8872C148.567 41.8872 146.9 38.278 147.903 35.9716" stroke="#263238" stroke-width="0.752601" stroke-linecap="round" stroke-linejoin="round"/>
<path d="M138.635 41.0874C138.635 41.0874 138.377 38.2791 136.973 37.681" stroke="#263238" stroke-width="0.752601" stroke-linecap="round" stroke-linejoin="round"/>
<path d="M189.738 55.0017C189.738 55.0017 196.435 49.6082 199.841 48.0064" stroke="#263238" stroke-width="0.752601" stroke-linecap="round" stroke-linejoin="round"/>
<path d="M160.434 23.6395C165.751 24.5418 180.289 25.7482 182.895 26.1487" stroke="#263238" stroke-width="0.752601" stroke-linecap="round" stroke-linejoin="round"/>
<path d="M150.406 21.9156C155.222 21.7636 157.726 22.9294 157.726 22.9294" stroke="#263238" stroke-width="0.752601" stroke-linecap="round" stroke-linejoin="round"/>
<path d="M83.0234 63.3762L92.8271 26.2095C92.8271 26.2095 132.472 39.2726 137.39 41.9237L171.951 46.3541C171.951 46.3541 170.906 70.0978 167.606 81.0166C167.606 81.0166 131.616 74.1125 126.815 73.7424C122.015 73.3724 83.0234 63.3762 83.0234 63.3762Z" fill="#92E3A9"/>
<path opacity="0.2" d="M124.686 71.3696L89.664 63.178C89.664 63.178 87.9151 59.655 86.3184 58.2914L93.8916 31.6634C93.8916 31.6634 96.5022 31.5823 98.175 30.0565L136.898 43.4947L165.442 46.7541C165.442 46.7541 165.787 51.0882 168.99 51.5038C168.99 51.5038 169.751 65.5554 167.267 74.9788C167.267 74.9788 163.805 76.089 161.615 77.7871L124.686 71.3696Z" fill="black" fill-opacity="0.7"/>
<path d="M124.686 71.3696L89.664 63.178C89.664 63.178 87.9151 59.655 86.3184 58.2914L93.8916 31.6634C93.8916 31.6634 96.5022 31.5823 98.175 30.0565L136.898 43.4947L165.442 46.7541C165.442 46.7541 165.787 51.0882 168.99 51.5038C168.99 51.5038 169.751 65.5554 167.267 74.9788C167.267 74.9788 163.805 76.089 161.615 77.7871L124.686 71.3696Z" stroke="#263238" stroke-width="0.752601" stroke-linecap="round" stroke-linejoin="round"/>
<path d="M126.506 64.5525C126.506 64.5525 117.382 62.1346 119.019 53.6185C120.656 45.1024 131.9 49.913 131.9 49.913C131.9 49.913 140.973 49.8623 139.721 56.7715C138.636 62.7631 135.346 65.9567 126.506 64.5525Z" fill="#92E3A9" stroke="#263238" stroke-width="0.752601" stroke-linecap="round" stroke-linejoin="round"/>
<path d="M92.9961 59.9396C92.9961 59.9396 103.423 62.5147 105.431 63.1787" stroke="#263238" stroke-width="0.752601" stroke-linecap="round" stroke-linejoin="round"/>
<path d="M93.8984 57.7342L99.6164 59.2346" stroke="#263238" stroke-width="0.752601" stroke-linecap="round" stroke-linejoin="round"/>
<path d="M97.9082 38.9339L99.7128 33.809L101.32 34.3717V35.9735L100.519 39.385L97.9082 38.9339Z" fill="#92E3A9" stroke="#263238" stroke-width="0.752601" stroke-linecap="round" stroke-linejoin="round"/>
<path d="M101.318 39.7857L102.52 35.9737L103.321 35.1728L105.429 35.9737L103.924 40.3889L101.318 39.7857Z" fill="#92E3A9" stroke="#263238" stroke-width="0.752601" stroke-linecap="round" stroke-linejoin="round"/>
<path d="M104.926 40.3876L106.142 35.9724L107.734 36.5959V38.9328L106.832 41.0872L104.926 40.3876Z" fill="#92E3A9" stroke="#263238" stroke-width="0.752601" stroke-linecap="round" stroke-linejoin="round"/>
<path d="M107.736 41.0876L109.14 37.6812H110.139L110.945 38.5328L110.043 41.7061H108.334L107.736 41.0876Z" fill="#92E3A9" stroke="#263238" stroke-width="0.752601" stroke-linecap="round" stroke-linejoin="round"/>
<path d="M112.262 38.1826H113.823C113.995 38.1562 114.171 38.1705 114.336 38.2242C114.502 38.2779 114.652 38.3695 114.776 38.4918C114.845 38.6178 114.881 38.7589 114.881 38.9024C114.881 39.0459 114.845 39.1871 114.776 39.313C114.655 39.5715 114.472 39.8199 114.366 40.0632C114.046 40.8591 114.447 41.8374 114.021 42.5978C113.053 42.5978 111.517 42.9374 111.486 41.7411C111.502 41.5434 112.617 38.1826 112.262 38.1826Z" fill="#92E3A9" stroke="#263238" stroke-width="0.752601" stroke-linecap="round" stroke-linejoin="round"/>
<path d="M116.172 39.5873C116.53 39.6256 116.884 39.6899 117.232 39.7799C117.683 39.8914 118.185 40.1094 118.306 40.5606C118.347 40.8035 118.326 41.0526 118.245 41.2854L117.495 44.1343C116.962 43.9965 116.437 43.8272 115.924 43.6274C115.361 43.2421 115.371 43.3739 115.326 42.6997C115.28 41.6048 116.309 40.7127 116.172 39.5873Z" fill="#92E3A9" stroke="#263238" stroke-width="0.752601" stroke-linecap="round" stroke-linejoin="round"/>
<path d="M94.6016 49.2082L101.318 50.9165L101.719 50.0649L95.0983 48.0068L94.6016 49.2082Z" fill="#92E3A9" stroke="#263238" stroke-width="0.752601" stroke-linecap="round" stroke-linejoin="round"/>
<path d="M139.707 70.6144L141.071 65.3527L142.713 65.7785L142.855 67.3753L142.343 70.8425L139.707 70.6144Z" fill="#92E3A9" stroke="#263238" stroke-width="0.752601" stroke-linecap="round" stroke-linejoin="round"/>
<path d="M143.18 71.173L144.052 67.2749L144.782 66.403L146.951 67.0214L145.826 71.5481L143.18 71.173Z" fill="#92E3A9" stroke="#263238" stroke-width="0.752601" stroke-linecap="round" stroke-linejoin="round"/>
<path d="M146.828 71.4624L147.659 66.9611L149.297 67.4477L149.5 69.7744L148.785 71.9998L146.828 71.4624Z" fill="#92E3A9" stroke="#263238" stroke-width="0.752601" stroke-linecap="round" stroke-linejoin="round"/>
<path d="M149.682 71.9234L150.792 68.4055L151.79 68.3193L152.662 69.0999L152.034 72.3391L150.336 72.4861L149.682 71.9234Z" fill="#92E3A9" stroke="#263238" stroke-width="0.752601" stroke-linecap="round" stroke-linejoin="round"/>
<path d="M153.945 68.6435L155.502 68.5067C155.671 68.4651 155.848 68.4641 156.018 68.5037C156.188 68.5434 156.346 68.6225 156.48 68.7348C156.559 68.8542 156.607 68.9916 156.618 69.1343C156.63 69.2771 156.605 69.4204 156.546 69.5509C156.45 69.8196 156.287 70.0578 156.206 70.3366C155.953 71.1527 156.434 72.0956 156.074 72.8712C155.111 72.9624 153.611 73.4237 153.494 72.2375C153.484 72.055 154.3 68.6131 153.945 68.6435Z" fill="#92E3A9" stroke="#263238" stroke-width="0.752601" stroke-linecap="round" stroke-linejoin="round"/>
<path d="M157.96 69.7025C158.329 69.7097 158.696 69.7436 159.06 69.8039C159.516 69.8799 160.038 70.0523 160.196 70.4882C160.256 70.7277 160.256 70.9787 160.196 71.2182L159.689 74.1177C159.144 74.0201 158.606 73.8897 158.077 73.7273C157.484 73.3928 157.504 73.5246 157.402 72.8555C157.245 71.7909 158.193 70.8177 157.96 69.7025Z" fill="#92E3A9" stroke="#263238" stroke-width="0.752601" stroke-linecap="round" stroke-linejoin="round"/>
<path d="M162.883 48.7073C162.883 48.7073 149.43 47.5008 148.076 47.5008" stroke="#263238" stroke-width="0.752601" stroke-linecap="round" stroke-linejoin="round"/>
<path d="M162.278 51.115C162.278 51.115 155.283 50.6081 154.066 50.5168" stroke="#263238" stroke-width="0.752601" stroke-linecap="round" stroke-linejoin="round"/>
<path d="M157.225 60.5181L165.188 62.1453V60.5181L157.225 59.337V60.5181Z" fill="#92E3A9" stroke="#263238" stroke-width="0.752601" stroke-linecap="round" stroke-linejoin="round"/>
<path opacity="0.2" d="M137.192 41.8384C136.457 45.3563 135.377 48.4941 133.821 50.8157C133.821 50.8157 138.657 49.1328 146.9 43.1665L171.951 46.3752C171.951 46.3752 171.272 61.8714 169.269 73.5811C159.131 69.982 139.919 63.4429 136.112 64.2184C130.886 65.2677 124.717 61.5622 124.717 61.5622C122.608 49.8475 113.753 38.4877 106.266 30.6914C118.001 34.6605 133.715 40.0794 137.192 41.8384Z" fill="black" fill-opacity="0.7"/>
<path d="M83.0234 63.3761L92.8271 26.2095C92.8271 26.2095 132.472 39.2726 137.39 41.9237L171.951 46.3541C171.951 46.3541 170.906 70.0978 167.606 81.0166C167.606 81.0166 131.616 74.1125 126.815 73.7424C122.015 73.3724 83.0234 63.3761 83.0234 63.3761Z" stroke="#263238" stroke-width="0.752601" stroke-linecap="round" stroke-linejoin="round"/>
<path d="M161.944 42.7699L199.841 48.0063C197.362 49.1722 193.135 52.3505 191.021 53.9929C190.23 54.6012 189.738 55.0067 189.738 55.0067L188.309 55.9344C181.491 60.7449 173.472 60.7449 166.654 61.5458C159.836 62.3467 160.434 62.1491 154.392 61.9463C149.856 61.7989 145.316 61.9988 140.811 62.5444C136.797 62.9449 129.735 63.7458 126.446 62.5444C124.834 61.9564 123.83 60.897 123.617 59.5689C123.404 58.2408 124.012 56.5274 125.685 54.7583C128.975 51.3164 142.489 49.9123 144.157 49.9123C145.825 49.9123 151.036 49.9123 153.043 48.7058C153.018 48.7058 159.136 45.4717 161.944 42.7699Z" fill="#C78976"/>
<path d="M185.607 56.3297C187.006 55.2348 189.024 54.4897 191.021 53.9929C190.23 54.6012 189.738 55.0067 189.738 55.0067L188.309 55.9344C181.491 60.7449 173.472 60.7449 166.654 61.5458C159.836 62.3467 160.434 62.1491 154.392 61.9463C149.856 61.7989 145.316 61.9988 140.812 62.5444C136.797 62.9449 129.736 63.7458 126.446 62.5444C124.834 61.9564 123.83 60.897 123.617 59.5689C124.337 57.0343 126.917 54.4998 131.332 53.6178C138.743 52.097 132.757 58.9555 139.037 60.5422C145.318 62.1288 147.011 59.8223 148.593 58.8744C150.174 57.9265 153.662 59.138 158.346 60.5422C163.029 61.9463 181.76 59.3357 185.607 56.3297Z" fill="#9F614E" fill-opacity="0.7"/>
<path d="M161.945 42.7692C159.137 45.4761 153.019 48.7051 153.019 48.7051C150.991 49.9115 145.8 49.9115 144.132 49.9115C142.465 49.9115 128.95 51.3157 125.661 54.7576C122.371 58.1995 123.126 61.3474 126.421 62.5437C129.716 63.74 136.772 62.9442 140.787 62.5437C145.3 61.9951 149.848 61.7935 154.392 61.9405C160.435 62.1433 159.836 62.346 166.654 61.54C173.472 60.7341 181.492 60.7391 188.31 55.9286L189.739 55.0009C189.739 55.0009 196.435 49.6074 199.842 48.0056" stroke="#263238" stroke-width="0.752601" stroke-linecap="round" stroke-linejoin="round"/>
<path d="M145.906 60.5168C145.906 60.5168 143.528 55.9192 143.731 53.6178" stroke="#263238" stroke-width="0.752601" stroke-linecap="round" stroke-linejoin="round"/>
<path opacity="0.2" d="M80.8998 130.731C80.8998 130.731 68.0953 142.359 67.3095 143.16C66.5238 143.961 52.8677 144.564 46.8557 146.774C40.8438 148.985 5.54259 150.054 5.54259 150.054C5.54259 150.054 2.93708 152.158 4.34122 158.089C5.74536 164.019 3.13477 169.834 6.94673 176.449C10.7587 183.064 65.2819 170.234 65.2819 170.234L106.783 157.212L80.8998 130.731Z" fill="black" fill-opacity="0.7"/>
<path d="M80.9957 122.742C80.9957 122.742 114.285 127.953 118.695 133.387C121.229 136.525 122.395 141.417 122.243 145.756C122.131 148.899 121.341 151.758 119.906 153.441C116.495 157.45 114.69 163.072 112.485 165.87C110.28 168.668 102.458 168.678 95.8381 170.483C89.2178 172.288 89.0201 174.898 82.405 175.496C75.7898 176.094 55.5387 178.507 49.9171 182.867C44.2955 187.226 39.8904 187.328 34.1725 189.132C28.4545 190.937 7.76756 204.137 7.76756 204.137L1.17773 171.958C1.17773 171.958 14.2712 168.795 24.9518 165.409C30.0209 163.802 34.5527 162.144 36.8743 160.755C41.365 158.088 46.0582 155.778 50.9106 153.846C54.7226 150.207 63.1677 148.214 70.5635 147.611L75.369 138.994C77.1787 132.368 80.9957 122.742 80.9957 122.742Z" fill="#FFBE9D"/>
<path opacity="0.9" d="M80.9967 122.742C80.9967 122.742 114.285 127.953 118.696 133.387C121.23 136.524 122.396 141.416 122.244 145.755C119.709 156.046 113.971 158.813 112.582 160.207C110.732 162.063 99.4583 164.501 92.8989 163.163C86.3395 161.824 83.9114 162.787 80.7077 163.893C73.611 166.341 69.7889 158.874 67.1023 158.104C64.4157 157.333 49.3909 157.597 44.5043 160.958C41.9038 162.742 28.5011 167.339 24.9629 165.403C30.032 163.796 34.5638 162.139 36.8854 160.75C41.3761 158.083 46.0693 155.773 50.9217 153.84C54.7337 150.201 63.1788 148.209 70.5746 147.605L75.3801 138.988C77.1797 132.368 80.9967 122.742 80.9967 122.742Z" fill="#EBAA89" fill-opacity="0.8"/>
<path d="M78.6543 162.038C78.6543 162.038 80.7884 163.852 80.7884 165.454" stroke="#263238" stroke-width="0.752601" stroke-linecap="round" stroke-linejoin="round"/>
<path d="M85.8672 158.089C85.8672 158.089 90.0137 160.04 90.9363 163.158" stroke="#263238" stroke-width="0.752601" stroke-linecap="round" stroke-linejoin="round"/>
<path d="M110.167 161.556C110.167 161.556 108.261 157.141 105.053 156.441" stroke="#263238" stroke-width="0.752601" stroke-linecap="round" stroke-linejoin="round"/>
<path d="M75.375 138.984C75.375 138.984 76.7791 140.089 77.9095 140.089" stroke="#263238" stroke-width="0.752601" stroke-linecap="round" stroke-linejoin="round"/>
<path d="M1.17773 171.938C1.17773 171.938 29.6509 165.054 36.8946 160.735C41.3853 158.068 46.0785 155.758 50.9309 153.826C54.7429 150.186 63.1931 148.194 70.5889 147.591L75.3944 138.973C77.199 132.358 81.0109 122.752 81.0109 122.752C81.0109 122.752 114.3 127.963 118.71 133.397C123.12 138.832 123.302 149.39 119.896 153.446C116.49 157.501 114.68 163.077 112.475 165.875C110.27 168.673 102.448 168.683 95.8279 170.488C89.2077 172.293 89.01 174.903 82.3948 175.501C75.7796 176.1 55.5286 178.512 49.907 182.872C44.2853 187.231 39.8803 187.333 34.1623 189.137C28.4444 190.942 7.76756 204.137 7.76756 204.137" stroke="#263238" stroke-width="0.752601" stroke-linecap="round" stroke-linejoin="round"/>
<path d="M78.8359 110.551L160.758 163.771L162.157 151.21L163.743 113.045L90.875 109.136L78.8359 110.551Z" fill="#263238" stroke="#263238" stroke-width="0.752601" stroke-linecap="round" stroke-linejoin="round"/>
<path d="M78.8309 110.551L162.344 115.468L160.758 163.771L96.7654 159.959L76.8945 158.773L77.7411 137.726L78.8309 110.551Z" fill="#757575"/>
<path d="M152.729 122.697C152.729 119.449 150.096 116.816 146.849 116.816C143.601 116.816 140.969 119.449 140.969 122.697C140.969 125.944 143.601 128.577 146.849 128.577C150.096 128.577 152.729 125.944 152.729 122.697Z" fill="#BFBFBF" stroke="#263238" stroke-width="0.752601" stroke-miterlimit="10"/>
<path d="M142.943 124.355L143.465 120.371" stroke="#263238" stroke-width="0.752601" stroke-linecap="round" stroke-linejoin="round"/>
<path d="M143.912 125.424L144.495 119.437" stroke="#263238" stroke-width="0.752601" stroke-linecap="round" stroke-linejoin="round"/>
<path d="M149.812 126.088L150.395 120.096" stroke="#263238" stroke-width="0.752601" stroke-linecap="round" stroke-linejoin="round"/>
<path d="M145.248 123.468C145.289 123.303 145.265 123.129 145.181 122.982C145.097 122.835 144.959 122.726 144.797 122.677L144.843 122.231L149.075 122.682L149.004 123.346L145.775 123.002L145.719 123.509L145.248 123.468Z" fill="#263238"/>
<path d="M145.425 121.252C145.425 120.988 145.623 120.867 145.902 120.897H145.952L145.927 121.156H145.881C145.76 121.156 145.704 121.186 145.694 121.272C145.684 121.358 145.729 121.414 145.851 121.424C145.973 121.434 146.079 121.394 146.251 121.232C146.321 121.149 146.409 121.085 146.509 121.043C146.609 121.002 146.717 120.985 146.824 120.993C147.103 121.024 147.245 121.176 147.215 121.445C147.184 121.713 147.012 121.83 146.738 121.804H146.632L146.657 121.551H146.784C146.905 121.551 146.956 121.516 146.966 121.429C146.976 121.343 146.936 121.282 146.814 121.272C146.692 121.262 146.586 121.303 146.414 121.465C146.344 121.547 146.256 121.612 146.156 121.653C146.056 121.695 145.948 121.712 145.841 121.703C145.537 121.668 145.374 121.51 145.425 121.252Z" fill="#263238"/>
<path d="M145.494 120.776L145.58 119.934L145.829 119.965L145.798 120.248L147.278 120.406L147.253 120.674L145.768 120.517L145.737 120.801L145.494 120.776Z" fill="#263238"/>
<path d="M82.5367 135.025L80.479 144.455C80.4259 144.698 80.5802 144.939 80.8236 144.992L86.7023 146.275C86.9457 146.328 87.1861 146.174 87.2392 145.93L89.2969 136.501C89.3501 136.257 89.1958 136.017 88.9524 135.964L83.0737 134.681C82.8302 134.628 82.5898 134.782 82.5367 135.025Z" fill="white" stroke="#263238" stroke-width="0.752601" stroke-linecap="round" stroke-linejoin="round"/>
<path d="M86.1944 141.407C86.1539 141.409 86.1143 141.42 86.0779 141.437C86.0579 141.442 86.037 141.442 86.017 141.437C86.0017 141.43 85.9893 141.417 85.9815 141.402C85.8599 141.265 85.6977 141.432 85.6673 141.564C85.6559 141.61 85.6565 141.657 85.6689 141.703C85.6814 141.748 85.7052 141.789 85.7382 141.823L85.3428 141.716L85.4442 141.25L85.2009 141.199L85.0488 141.899C85.0828 141.913 85.1186 141.924 85.1553 141.929C85.1908 141.929 85.2009 141.883 85.2415 141.883C85.282 141.883 85.2769 141.883 85.2972 141.883C85.3269 141.874 85.3522 141.854 85.3682 141.828C85.3682 141.802 85.4138 141.777 85.4442 141.782C85.4541 141.779 85.4648 141.779 85.4746 141.782C85.5212 141.801 85.5604 141.835 85.5862 141.878C85.59 141.898 85.6008 141.916 85.6166 141.929H85.647C85.6825 141.929 85.7027 141.97 85.723 142C85.7433 142.03 85.9055 142.106 86.017 142.137L86.0728 141.883H86.0221C85.9004 141.858 85.87 141.792 85.8852 141.711C85.9004 141.63 85.9613 141.579 86.0829 141.61L86.458 141.691C86.5746 141.691 86.6101 141.777 86.5898 141.863C86.5696 141.949 86.5189 141.99 86.3972 141.965L86.2401 141.929L86.1843 142.182L86.3262 142.213C86.3812 142.233 86.4398 142.24 86.498 142.235C86.5562 142.231 86.6127 142.213 86.6638 142.185C86.7148 142.157 86.7592 142.118 86.794 142.071C86.8288 142.024 86.8532 141.97 86.8656 141.913C86.878 141.856 86.878 141.797 86.8657 141.74C86.8535 141.683 86.8291 141.629 86.7944 141.582C86.7597 141.535 86.7153 141.496 86.6643 141.468C86.6133 141.439 86.5568 141.422 86.4986 141.417C86.3982 141.399 86.2958 141.396 86.1944 141.407Z" fill="#263238"/>
<path d="M86.9054 138.097C86.8653 138.101 86.8261 138.112 86.7888 138.127C86.7688 138.132 86.7479 138.132 86.728 138.127C86.7127 138.119 86.7003 138.107 86.6925 138.092C86.5708 137.96 86.4086 138.127 86.3782 138.254C86.3669 138.299 86.3674 138.347 86.3799 138.392C86.3923 138.438 86.4162 138.479 86.4492 138.512L86.0538 138.406L86.1552 137.94L85.9118 137.889L85.7598 138.588C85.7929 138.605 85.8291 138.616 85.8662 138.619C85.9017 138.619 85.9118 138.578 85.9524 138.573C85.9929 138.568 85.9879 138.573 86.0082 138.573C86.0379 138.564 86.0631 138.544 86.0791 138.517C86.0791 138.492 86.1247 138.467 86.1552 138.472C86.1856 138.477 86.1552 138.472 86.1856 138.472C86.2336 138.491 86.2732 138.527 86.2971 138.573C86.3023 138.591 86.3129 138.607 86.3275 138.619C86.3275 138.619 86.3275 138.619 86.3579 138.619C86.3883 138.619 86.4137 138.654 86.434 138.685C86.4542 138.715 86.6164 138.791 86.728 138.822L86.7837 138.568H86.733C86.6114 138.543 86.581 138.477 86.5962 138.396C86.6114 138.315 86.6722 138.269 86.7939 138.294L87.169 138.375C87.2856 138.375 87.3211 138.462 87.3008 138.548C87.2805 138.634 87.2298 138.675 87.1081 138.649L86.951 138.614L86.8952 138.867L87.0372 138.898C87.0905 138.913 87.1464 138.917 87.2014 138.91C87.2564 138.903 87.3094 138.884 87.357 138.856C87.4046 138.828 87.4459 138.79 87.4783 138.745C87.5107 138.7 87.5335 138.648 87.5453 138.594C87.5571 138.54 87.5577 138.484 87.547 138.429C87.5363 138.375 87.5145 138.323 87.483 138.278C87.4516 138.232 87.411 138.193 87.364 138.164C87.317 138.135 87.2644 138.115 87.2095 138.107C87.1094 138.087 87.0066 138.083 86.9054 138.097Z" fill="#263238"/>
<path d="M86.5297 139.582V139.556C86.5044 139.556 86.4791 139.556 86.4436 139.556V139.445L86.0533 139.359C85.9978 139.339 85.9388 139.332 85.8802 139.337C85.8216 139.342 85.7647 139.359 85.7133 139.388C85.662 139.416 85.6172 139.455 85.5821 139.503C85.547 139.55 85.5224 139.604 85.5097 139.661C85.4971 139.719 85.4968 139.778 85.5088 139.836C85.5208 139.893 85.545 139.948 85.5796 139.995C85.6142 140.043 85.6585 140.083 85.7095 140.112C85.7606 140.141 85.8173 140.159 85.8758 140.165H85.9468C85.9772 140.129 86.0279 140.109 86.0533 140.073C86.0786 140.038 86.0533 139.982 86.1394 139.997C86.2256 140.012 86.2104 140.028 86.2357 139.997C86.2611 139.967 86.2357 139.962 86.2712 139.957C86.2792 139.951 86.289 139.947 86.2991 139.947C86.3092 139.947 86.319 139.951 86.327 139.957C86.327 139.957 86.327 139.992 86.3726 139.997C86.4182 140.002 86.4486 139.997 86.4588 140.028C86.4689 140.058 86.398 140.124 86.403 140.18C86.4088 140.2 86.4199 140.218 86.4351 140.232C86.4502 140.246 86.4689 140.256 86.4892 140.261C86.5754 140.287 86.6635 140.305 86.7528 140.317C86.8064 140.335 86.8635 140.342 86.9198 140.335C86.9762 140.329 87.0306 140.311 87.079 140.281C87.1274 140.252 87.1687 140.212 87.2 140.165C87.2312 140.117 87.2516 140.064 87.2597 140.007C87.2752 139.95 87.2777 139.889 87.2672 139.831C87.2567 139.772 87.2334 139.716 87.1989 139.668C87.1601 139.623 87.1138 139.585 87.062 139.556C87.0361 139.533 87.0028 139.521 86.9682 139.521C86.9337 139.521 86.9004 139.533 86.8745 139.556V139.582L86.7528 139.617C86.7528 139.617 86.7528 139.617 86.7224 139.582C86.692 139.546 86.6261 139.582 86.5906 139.531C86.5551 139.48 86.5399 139.592 86.5297 139.582ZM86.8745 139.794C86.9961 139.82 87.0316 139.886 87.0113 139.972C86.991 140.058 86.9353 140.099 86.8136 140.073L85.9012 139.871C85.7795 139.845 85.744 139.784 85.7643 139.698C85.7846 139.612 85.8404 139.571 85.962 139.597L86.8745 139.794Z" fill="#263238"/>
<path d="M87.1593 139.131L87.4178 139.187L87.362 139.446L87.1035 139.39L87.1593 139.131Z" fill="#263238"/>
<path d="M86.7084 137.012C86.7084 136.981 86.5919 136.981 86.5513 136.971C86.4958 136.952 86.4368 136.944 86.3782 136.949C86.3196 136.954 86.2628 136.972 86.2114 137C86.16 137.029 86.1153 137.068 86.0802 137.115C86.0451 137.163 86.0204 137.217 86.0078 137.274C85.9951 137.332 85.9948 137.391 86.0069 137.449C86.0189 137.506 86.043 137.561 86.0776 137.608C86.1122 137.656 86.1565 137.695 86.2076 137.725C86.2587 137.754 86.3153 137.772 86.3739 137.777L86.7135 137.853C86.7743 137.787 86.8707 137.853 86.9416 137.823C87.0126 137.793 86.9416 137.823 86.972 137.823C87.0025 137.823 87.0177 137.899 87.0582 137.899C87.0988 137.899 87.0582 137.899 87.0582 137.899C87.0582 137.899 87.119 137.94 87.1495 137.965C87.1735 137.981 87.2017 137.99 87.2306 137.99C87.2861 138.01 87.3451 138.017 87.4036 138.012C87.4622 138.007 87.5191 137.99 87.5705 137.961C87.6219 137.932 87.6666 137.893 87.7017 137.846C87.7368 137.799 87.7615 137.745 87.7741 137.687C87.7867 137.63 87.7871 137.57 87.775 137.513C87.763 137.455 87.7389 137.401 87.7042 137.353C87.6696 137.306 87.6253 137.266 87.5743 137.237C87.5232 137.208 87.4665 137.19 87.408 137.184L87.1292 137.123C87.0582 137.123 86.8707 137.032 86.8149 137.123C86.7591 137.215 86.8149 137.164 86.7794 137.174C86.7677 137.18 86.7547 137.184 86.7414 137.184C86.7281 137.184 86.7151 137.18 86.7034 137.174C86.6527 137.113 86.7389 137.068 86.7084 137.012ZM87.1545 137.321C87.1849 137.321 87.1951 137.372 87.2356 137.397C87.286 137.417 87.3389 137.429 87.3928 137.433C87.5144 137.458 87.5448 137.524 87.5296 137.605C87.5144 137.686 87.4536 137.737 87.3319 137.706C87.2965 137.706 87.1951 137.661 87.1647 137.671C87.1342 137.681 87.1647 137.722 87.1038 137.742C87.0508 137.757 86.9946 137.757 86.9416 137.742C86.9299 137.739 86.9178 137.739 86.9061 137.742C86.9061 137.742 86.8605 137.767 86.8402 137.742C86.82 137.717 86.8402 137.742 86.8402 137.742C86.8402 137.742 86.7743 137.742 86.7287 137.742C86.6831 137.742 86.7287 137.742 86.7287 137.742C86.7896 137.58 86.5412 137.585 86.4398 137.559C86.3384 137.534 86.2826 137.468 86.3029 137.387C86.3232 137.306 86.379 137.26 86.4955 137.286C86.5988 137.32 86.7062 137.341 86.8149 137.346C86.8182 137.325 86.8284 137.306 86.8441 137.291C86.8597 137.276 86.8797 137.267 86.9011 137.265C86.9279 137.27 86.9554 137.27 86.9822 137.265C86.9822 137.265 87.0278 137.265 87.0481 137.265C87.0684 137.265 87.0481 137.296 87.0481 137.316C87.0536 137.33 87.0625 137.342 87.074 137.352C87.0855 137.362 87.0992 137.369 87.114 137.372L87.1545 137.321Z" fill="#263238"/>
<path d="M83.0234 139.845L83.3986 138.132" stroke="#263238" stroke-width="0.752601" stroke-linecap="round" stroke-linejoin="round"/>
<path d="M82.1719 143.739L82.841 140.698" stroke="#263238" stroke-width="0.752601" stroke-linecap="round" stroke-linejoin="round"/>
<path d="M83.3477 143.992L83.7836 141.984" stroke="#263238" stroke-width="0.752601" stroke-linecap="round" stroke-linejoin="round"/>
<path opacity="0.4" d="M160.019 161.556C159.322 158.892 158.954 156.153 158.924 153.4C158.802 148.453 159.74 145.289 157.733 141.234C155.725 137.179 159.34 134.548 157.332 130.67C155.325 126.792 152.111 124.993 152.182 122.752C152.253 120.512 116.349 117.176 110.169 116.102C103.99 115.027 86.7653 112.741 83.2676 111.955L161.114 116.37L160.019 161.556Z" fill="white"/>
<path d="M144.699 161.344L159.739 148.98L158.928 162.038L144.699 161.344Z" fill="#92E3A9" stroke="#263238" stroke-width="0.752601" stroke-linecap="round" stroke-linejoin="round"/>
<path d="M114.958 128.531L120.681 128.729C121.48 128.756 122.265 128.941 122.992 129.272C123.719 129.603 124.374 130.074 124.919 130.658C125.464 131.242 125.889 131.928 126.169 132.677C126.449 133.425 126.579 134.221 126.551 135.02L126.343 140.9C126.316 141.701 126.131 142.488 125.798 143.217C125.465 143.946 124.992 144.602 124.405 145.147C123.818 145.693 123.129 146.117 122.378 146.395C121.627 146.674 120.828 146.801 120.027 146.77L112.576 146.506C110.964 146.449 109.441 145.755 108.341 144.575C107.241 143.395 106.655 141.827 106.711 140.215L106.913 134.335C106.913 134.173 106.913 134.011 106.949 133.828C107.74 134.651 108.795 135.171 109.93 135.296C111.065 135.422 112.208 135.146 113.16 134.516C114.112 133.886 114.814 132.942 115.142 131.849C115.471 130.756 115.406 129.582 114.958 128.531Z" fill="#92E3A9" stroke="#263238" stroke-width="0.752601" stroke-linecap="round" stroke-linejoin="round"/>
<path d="M110.016 127.472C110.567 127.491 111.099 127.672 111.546 127.993C111.993 128.314 112.335 128.76 112.529 129.276C112.722 129.791 112.759 130.352 112.633 130.888C112.508 131.424 112.226 131.911 111.824 132.287C111.422 132.663 110.917 132.911 110.374 133C109.831 133.089 109.273 133.015 108.772 132.787C108.271 132.559 107.849 132.188 107.558 131.72C107.268 131.252 107.123 130.709 107.142 130.159C107.169 129.422 107.486 128.726 108.025 128.222C108.563 127.719 109.279 127.449 110.016 127.472Z" fill="#92E3A9" stroke="#263238" stroke-width="0.752601" stroke-linecap="round" stroke-linejoin="round"/>
<path opacity="0.4" d="M120.737 145.097L113.346 136.454C113.346 136.454 109.387 137.549 108.135 136.454V140.606C108.131 141.606 108.51 142.569 109.193 143.299C109.876 144.029 110.812 144.471 111.81 144.534L120.737 145.097Z" fill="white"/>
<path opacity="0.4" d="M110.169 131.431L108.142 129.58C108.142 129.58 107.366 130.731 108.142 131.431C108.917 132.13 110.169 131.431 110.169 131.431Z" fill="white"/>
<path d="M154.326 132.334L154.929 118.399" stroke="#263238" stroke-width="0.752601" stroke-linecap="round" stroke-linejoin="round"/>
<path d="M155.729 137.159L156.732 118.399" stroke="#263238" stroke-width="0.752601" stroke-linecap="round" stroke-linejoin="round"/>
<path d="M159.738 123.31V118.398" stroke="#263238" stroke-width="0.752601" stroke-linecap="round" stroke-linejoin="round"/>
<path opacity="0.2" d="M108.556 140.388C112.013 147.576 99.9032 155.362 98.2354 158.089C97.811 158.761 97.3184 159.388 96.7654 159.959L76.8945 158.773L77.7411 137.731C80.7014 137.868 83.971 137.823 85.8516 137.164C89.9525 135.744 105.104 133.205 108.556 140.388Z" fill="black" fill-opacity="0.7"/>
<path opacity="0.4" d="M109.173 148.443C109.173 148.443 111.667 142.695 110.187 140.089C108.707 137.483 105.878 134.675 99.5977 134.275C99.5977 134.275 108.443 130.853 111.094 137.752C113.746 144.651 109.173 148.443 109.173 148.443Z" fill="white"/>
<path opacity="0.4" d="M112.712 150.683C112.712 150.683 115.845 139.024 110.178 134.036C110.178 134.036 113.326 134.705 114.233 140.088C115.14 145.472 112.712 150.683 112.712 150.683Z" fill="white"/>
<path opacity="0.4" d="M92.4623 131.933C90.8858 132.82 105.054 131.73 105.054 131.73C105.054 131.73 95.6964 130.129 92.4623 131.933Z" fill="white"/>
<path d="M78.8309 110.551L162.344 115.468L160.758 163.771L96.7654 159.959L76.8945 158.773L77.7411 137.726L78.8309 110.551Z" stroke="#263238" stroke-width="0.752601" stroke-linecap="round" stroke-linejoin="round"/>
<path opacity="0.4" d="M162.791 112.995L162.345 114.754L85.8672 110.551L90.916 109.806L162.791 112.995Z" fill="white"/>
<path d="M108.557 140.387C108.91 141.052 109.1 141.791 109.112 142.544C109.123 143.297 108.956 144.041 108.623 144.716C108.01 145.885 107.04 146.828 105.855 147.408C102.246 149.41 94.0237 154.829 91.6615 155.828C89.2993 156.826 82.6182 159.037 79.815 161.242C77.0118 163.447 72.7943 164.653 72.7943 164.653L31.8867 165.454C37.8024 164.253 44.5189 160.943 44.5189 160.943C46.0154 158.067 48.2251 155.623 50.9364 153.846C51.4873 153.329 52.0865 152.865 52.7258 152.462C57.7949 149.187 66.9192 147.601 74.016 147.428C82.0404 147.226 85.6749 144.62 92.6652 140.408C99.6555 136.195 107.001 137.65 108.557 140.387Z" fill="#FFBE9D"/>
<path d="M108.557 140.388C108.902 141.055 109.087 141.794 109.098 142.545C109.11 143.296 108.947 144.039 108.623 144.717C107.994 142.416 106.813 139.395 105.074 140.089C102.296 141.179 106.418 144.367 105.074 145.969C103.731 147.571 96.026 153.39 92.6348 149.695C89.2436 146 83.556 147.16 81.9542 149.695C80.3524 152.229 76.5353 150.582 70.5284 149.781C66.8939 149.274 58.6617 151.013 52.7207 152.442C57.7898 149.168 66.9142 147.581 74.0109 147.409C82.0353 147.206 85.6698 144.6 92.6601 140.388C99.6504 136.176 107.097 137.651 108.557 140.388Z" fill="#EBAA89" fill-opacity="0.8"/>
<path d="M31.8594 165.454C37.775 164.253 44.4916 160.943 44.4916 160.943C45.988 158.067 48.1977 155.623 50.909 153.846C55.3192 149.633 65.9491 147.626 73.9684 147.428C81.9877 147.231 85.6273 144.62 92.6176 140.408C99.6079 136.195 106.897 137.366 108.555 140.408C109.716 142.527 109.462 145.421 105.853 147.428C102.244 149.436 94.0217 154.85 91.6595 155.848C89.2973 156.847 82.6162 159.057 79.813 161.262C77.0098 163.467 72.7923 164.673 72.7923 164.673" stroke="#263238" stroke-width="0.752601" stroke-linecap="round" stroke-linejoin="round"/>
<path d="M90.9172 152.432C90.9172 152.432 90.6232 149.157 89.3965 147.657" stroke="#263238" stroke-width="0.752601" stroke-linecap="round" stroke-linejoin="round"/>
<path d="M73.5996 165.855C73.5996 165.855 75.1203 166.494 76.6411 163.148" stroke="#263238" stroke-width="0.752601" stroke-linecap="round" stroke-linejoin="round"/>
</svg>
